<svg id="Layer_6" data-name="Layer 6" xmlns="http://www.w3.org/2000/svg" xmlns:xlink="http://www.w3.org/1999/xlink" viewBox="0 0 112.08 112.08"><defs><style>.cls-1{fill:none;}.cls-2{clip-path:url(#clip-path);}.cls-3{fill:#fb6415;}.cls-4{fill:#85121f;}.cls-5{fill:#fefefe;}</style><clipPath id="clip-path"><path class="cls-1" d="M89.06,82.4c-5.12,4.24-8.37.7-8-3.38a7.27,7.27,0,0,1,2.7-4.92c31.4-26.42,10.12-64-27.87-64h0c-38,0-59.26,37.57-27.86,64A7.3,7.3,0,0,1,30.67,79c.32,4.08-2.93,7.62-8,3.38-1.78-1.49-5.47-9.1-7.79-4.62-7.24,14,10,26.44,23.7,13.57.48-.45-1.83,6.88-.72,9.56a.62.62,0,0,0,.37.32c6.36,2,16.81.22,17.66-7.55.86,7.77,11.3,9.52,17.66,7.55a.62.62,0,0,0,.37-.32c1.11-2.68-1.2-10-.72-9.56,13.68,12.87,30.94.44,23.7-13.57C94.53,73.3,90.85,80.91,89.06,82.4Z"/></clipPath></defs><g class="cls-2"><rect class="cls-3" width="112.08" height="112.08"/><path class="cls-4" d="M36.48,93c-1.47-3.59,3.43-7.27,6-3.29,1.85,3-2,6.09-4.57,4.94Z"/><path class="cls-4" d="M47.9,101.79c-4.69-5.84,2.84-10.24,5.57-3.28C52,100,49.87,101.61,47.9,101.79Z"/><path class="cls-4" d="M71.94,101.57c-4.2-1.11-2.1-7.12,1.79-6.74,1.25,2,1.82,4.32.66,6.41"/><path class="cls-4" d="M13.71,88.07a4.82,4.82,0,0,1,3,.06,4,4,0,0,1,2.69,2.77,3.82,3.82,0,0,1-1.25,3.23c-.48-.66-3.76-.67-4.77-2C12.57,91,14,88.44,13.71,88.07Z"/><path class="cls-4" d="M98.46,82.76c.51.15.41,2.38,0,4a10,10,0,0,1-1,2.49,5.47,5.47,0,0,1-.76-3.65C97,84.11,98,82.64,98.46,82.76Z"/><path class="cls-4" d="M23.67,96.46c1.21-1.27,4-1.38,5.06,0-.65,1-1.74.63-2.64.76A2.27,2.27,0,0,1,23.67,96.46Z"/><path class="cls-4" d="M37.51,99.32a3.38,3.38,0,0,1,2.64,2.32C37.88,101.79,37.57,101.2,37.51,99.32Z"/><path class="cls-4" d="M75.63,89.37c-4.33,0-4.36-6.61.32-6.52C80.28,82.93,80.61,89.38,75.63,89.37Z"/><path class="cls-4" d="M86.44,88.09a3.17,3.17,0,0,1,3.38,3.19c0,2.13-1.25,3.59-3.12,3.59a3.39,3.39,0,0,1-3.43-3.5C83.26,89.21,84.34,88.1,86.44,88.09Z"/><path class="cls-4" d="M66.36,91.39a3.38,3.38,0,1,1-6.75,0c-.15-1.72,1.61-3.32,3.47-3.32A3.07,3.07,0,0,1,66.36,91.39Z"/><path class="cls-4" d="M55.58,86.11a3,3,0,0,1-3.14,3.27,3.27,3.27,0,1,1-.12-6.53A3,3,0,0,1,55.58,86.11Z"/><path class="cls-4" d="M31.59,84.37c-1.21-1.69-1.83-2.92-4.46-2.47-2.8.1-2.43,1.95-2,4C26.1,91.28,34,89.07,31.59,84.37Z"/><path class="cls-4" d="M56.68,54.4a.75.75,0,0,1-1.28,0c-9-12-27.79-5-27.79,11.27,0,13.28,19.89,19.85,27.55,8.48v0c0-.14.43-.41.87-.45s.86.31.87.45v0c7.66,11.37,27.55,4.8,27.55-8.48C84.47,49.35,65.68,42.37,56.68,54.4ZM45,74.39c-8.39.92-12.85-5.06-13-11.21-.17-6.65,5.64-11.91,11.51-11.45,5.65,0,10.68,5,10.7,11.2C54.22,69.62,49.23,73.93,45,74.39Zm22.08,0c-4.23-.46-9.22-4.77-9.2-11.46,0-6.23,5-11.2,10.7-11.2,5.87-.46,11.68,4.8,11.51,11.45C79.93,69.33,75.47,75.31,67.08,74.39Z"/><path class="cls-5" d="M43.5,51.73c-5.87-.46-11.68,4.8-11.51,11.45.16,6.15,4.62,12.13,13,11.21,4.23-.46,9.22-4.77,9.2-11.46C54.18,56.7,49.15,51.73,43.5,51.73Zm.32,13.59c-10-.69-7.12-14,2.34-11.49C53.21,55.41,50.47,66.06,43.82,65.32Z"/><path class="cls-4" d="M46.16,53.83c-9.46-2.47-12.37,10.8-2.34,11.49C50.47,66.06,53.21,55.41,46.16,53.83Z"/><path class="cls-5" d="M68.58,51.73c-5.65,0-10.68,5-10.7,11.2,0,6.69,5,11,9.2,11.46,8.39.92,12.85-5.06,13-11.21C80.26,56.53,74.45,51.27,68.58,51.73Zm-.32,13.59c-6.65.74-9.39-9.91-2.34-11.49C75.38,51.36,78.29,64.63,68.26,65.32Z"/><path class="cls-4" d="M65.92,53.83c-7.05,1.58-4.31,12.23,2.34,11.49C78.29,64.63,75.38,51.36,65.92,53.83Z"/></g></svg>